<?xml version="1.0" standalone="no"?>
<!DOCTYPE svg PUBLIC "-//W3C//DTD SVG 20010904//EN"
 "http://www.w3.org/TR/2001/REC-SVG-20010904/DTD/svg10.dtd">
<svg version="1.0" xmlns="http://www.w3.org/2000/svg"
 width="675.000000pt" height="109.000000pt" viewBox="0 0 675.000000 109.000000"
 preserveAspectRatio="xMidYMid meet">

<g transform="translate(0.000000,109.000000) scale(0.100000,-0.100000)"
fill="#ffffff" stroke="none">
<path d="M410 1021 c-67 -22 -110 -42 -110 -51 0 -4 18 -48 40 -99 41 -95 49
-138 28 -159 -19 -19 -37 -15 -138 33 -52 25 -101 45 -107 45 -28 0 -95 -182
-75 -202 6 -6 67 -8 144 -6 148 4 184 16 245 80 55 58 71 109 74 239 1 63 -1
121 -5 127 -10 16 -30 14 -96 -7z"/>
<path d="M586 1033 c-3 -3 -6 -59 -6 -123 0 -136 14 -188 67 -249 62 -72 97
-85 257 -89 l139 -4 -7 42 c-8 50 -42 150 -55 163 -6 6 -46 -6 -109 -32 -61
-27 -110 -41 -128 -39 -46 5 -44 53 6 156 22 46 40 90 40 98 0 18 -34 39 -95
58 -72 21 -101 27 -109 19z"/>
<path d="M1415 758 c-3 -8 -4 -106 -3 -218 l3 -205 45 0 45 0 0 215 0 215 -43
3 c-28 2 -44 -1 -47 -10z"/>
<path d="M1614 757 c-2 -7 -3 -105 -2 -217 l3 -205 40 0 40 0 5 119 c3 77 9
121 16 123 7 2 51 -53 99 -122 l87 -126 41 3 42 3 0 215 0 215 -40 0 -40 0 -3
-115 c-1 -63 -5 -121 -7 -129 -8 -22 -30 3 -117 131 -78 118 -78 118 -119 118
-23 0 -42 -5 -45 -13z"/>
<path d="M2070 762 c0 -4 38 -102 84 -217 l84 -210 49 0 48 0 82 200 c45 110
82 208 82 218 1 13 -7 17 -38 17 -22 0 -43 -6 -48 -12 -4 -7 -33 -80 -63 -162
-30 -81 -59 -148 -65 -148 -5 0 -33 64 -61 142 -64 180 -64 180 -114 180 -22
0 -40 -3 -40 -8z"/>
<path d="M2585 757 c-3 -7 -4 -105 -3 -217 l3 -205 155 0 155 0 0 40 0 40
-107 3 -108 3 0 39 0 39 88 3 87 3 0 40 0 40 -85 5 -85 5 0 40 0 40 105 5 105
5 0 40 0 40 -153 3 c-118 2 -154 0 -157 -11z"/>
<path d="M2985 758 c-3 -8 -4 -106 -3 -218 l3 -205 45 0 45 0 3 123 c2 92 6
122 15 120 7 -3 49 -58 95 -124 l82 -119 48 0 47 0 0 215 0 215 -45 0 -45 0
-3 -128 c-2 -96 -6 -127 -15 -125 -7 3 -50 60 -97 129 -85 123 -85 124 -128
127 -28 2 -44 -1 -47 -10z"/>
<path d="M3444 756 c-3 -8 -4 -27 -2 -43 3 -27 5 -28 68 -33 l65 -5 5 -170 5
-170 40 0 40 0 5 170 5 170 65 5 65 5 0 40 0 40 -178 3 c-147 2 -178 0 -183
-12z"/>
<path d="M3996 755 c-21 -7 -54 -28 -73 -47 -74 -69 -92 -163 -49 -253 42 -92
112 -130 222 -123 84 5 138 41 177 117 46 93 32 178 -42 252 -66 67 -148 85
-235 54z m169 -97 c53 -46 53 -164 0 -217 -22 -23 -34 -26 -89 -26 -54 0 -68
4 -90 24 -54 51 -56 162 -5 213 24 25 35 28 93 28 53 0 70 -4 91 -22z"/>
<path d="M4395 758 c-3 -7 -4 -106 -3 -218 l3 -205 40 0 40 0 5 94 c3 56 10
96 16 98 6 2 43 -39 83 -92 40 -53 78 -98 85 -101 8 -3 32 -4 54 -2 l41 3 -54
72 c-30 40 -55 76 -55 81 0 6 11 17 25 26 35 23 65 75 65 112 0 35 -32 88 -73
118 -23 17 -46 21 -147 24 -96 4 -121 2 -125 -10z m246 -99 c16 -16 20 -28 15
-52 -9 -46 -20 -52 -99 -52 l-72 0 -3 49 c-5 73 -2 76 73 76 53 0 69 -4 86
-21z"/>
<path d="M4824 755 c-4 -9 -4 -45 -1 -81 6 -78 36 -130 93 -159 l39 -21 5 -79
5 -80 45 0 45 0 5 78 c5 79 5 79 45 106 54 37 82 82 90 145 12 91 7 101 -45
101 l-45 0 -5 -71 c-6 -93 -24 -114 -92 -114 -74 0 -93 27 -100 145 -3 38 -4
40 -41 43 -27 2 -39 -1 -43 -13z"/>
<path d="M5583 758 c-17 -22 -171 -417 -165 -422 3 -3 23 -6 44 -6 37 0 40 3
59 45 l20 45 90 0 90 0 19 -45 c18 -42 22 -45 58 -45 21 0 41 3 44 6 6 5 -148
400 -165 422 -5 6 -26 12 -47 12 -21 0 -42 -6 -47 -12z m96 -225 c1 -21 -4
-23 -49 -23 -56 0 -58 4 -35 70 27 76 37 79 62 24 12 -27 22 -59 22 -71z"/>
<path d="M5924 757 c-2 -7 -3 -105 -2 -217 l3 -205 45 0 45 0 3 71 3 71 74 6
c91 7 133 30 165 91 23 43 23 44 6 89 -32 83 -81 106 -234 107 -74 0 -104 -4
-108 -13z m244 -89 c16 -16 15 -73 -2 -87 -9 -7 -40 -11 -78 -9 l-63 3 -3 39
c-5 61 0 66 71 66 36 0 68 -5 75 -12z"/>
<path d="M6354 757 c-2 -7 -3 -105 -2 -217 l3 -205 45 0 45 0 3 73 3 72 47 0
c105 1 180 44 201 116 19 66 -31 143 -107 163 -55 16 -231 14 -238 -2z m244
-89 c7 -7 12 -27 12 -45 0 -42 -24 -55 -98 -51 l-57 3 -3 39 c-5 61 0 66 71
66 36 0 68 -5 75 -12z"/>
<path d="M45 501 c-13 -22 46 -201 67 -201 5 0 51 18 103 40 98 42 133 48 153
28 19 -19 15 -33 -35 -144 -41 -92 -45 -106 -32 -119 19 -19 117 -54 161 -57
l33 -3 0 140 c0 156 -7 178 -73 248 -56 58 -120 77 -257 77 -63 0 -116 -4
-120 -9z"/>
<path d="M747 486 c-56 -20 -122 -80 -149 -133 -20 -43 -23 -62 -23 -178 0
-152 -3 -148 103 -116 115 35 113 32 63 149 -26 61 -41 112 -39 129 5 46 54
43 168 -11 86 -40 96 -43 107 -28 20 25 52 116 55 158 l3 39 -125 2 c-85 2
-137 -2 -163 -11z"/>
</g>
</svg>
